PathFileType	4	(X/Y/Z)	/Users/itak/Documents/Research/Walk-IL/dataset/trc/00085_00006.trc
DataRate	CameraRate	NumFrames	NumMarkers	Units	OrigDataRate	OrigDataStartFrame	OrigNumFrames
100.000000	100.000000	4	53	mm	100.000000	393	524
Frame#	Time	RPSI			LPSI			L3			STRN			T10			C7			CLAV			RBAK			LBAK			LSHO			LUPA			LAEL			LAOL			LWTS			LWPS			LFRA			LIFD			LHPS			LHTS			RSHO			RUPA			RAEL			RAOL			RWTS			RWPS			RFRA			RIFD			RHTS			RHPS			RBHD			LFHD			RFHD			LBHD			LHIP			RHIP			RASI			LASI			LKNE			LTHI			LANK			LTIP			LTOE			LMT1			LMT5			LHEE			RKNE			RTHI			RANK			RTIP			RTOE			RMT1			RMT5			RHEE			
		X1	Y1	Z1	X2	Y2	Z2	X3	Y3	Z3	X4	Y4	Z4	X5	Y5	Z5	X6	Y6	Z6	X7	Y7	Z7	X8	Y8	Z8	X9	Y9	Z9	X10	Y10	Z10	X11	Y11	Z11	X12	Y12	Z12	X13	Y13	Z13	X14	Y14	Z14	X15	Y15	Z15	X16	Y16	Z16	X17	Y17	Z17	X18	Y18	Z18	X19	Y19	Z19	X20	Y20	Z20	X21	Y21	Z21	X22	Y22	Z22	X23	Y23	Z23	X24	Y24	Z24	X25	Y25	Z25	X26	Y26	Z26	X27	Y27	Z27	X28	Y28	Z28	X29	Y29	Z29	X30	Y30	Z30	X31	Y31	Z31	X32	Y32	Z32	X33	Y33	Z33	X34	Y34	Z34	X35	Y35	Z35	X36	Y36	Z36	X37	Y37	Z37	X38	Y38	Z38	X39	Y39	Z39	X40	Y40	Z40	X41	Y41	Z41	X42	Y42	Z42	X43	Y43	Z43	X44	Y44	Z44	X45	Y45	Z45	X46	Y46	Z46	X47	Y47	Z47	X48	Y48	Z48	X49	Y49	Z49	X50	Y50	Z50	X51	Y51	Z51	X52	Y52	Z52	X53	Y53	Z53	

394	3.93	561.6748046875	1000.968933105469	-263.0332641601562	390.2100524902344	991.0208129882812	-286.0324401855469	462.8109741210938	1056.064208984375	-276.5088500976562	535.9226684570312	1257.775390625	-510.8257751464844	443.5766906738281	1185.138061523438	-259.8021850585938	465.2939758300781	1453.682373046875	-307.5545959472656	528.255615234375	1371.697387695312	-478.1007995605469	510.0646057128906	1311.260498046875	-229.9856567382812	360.0296020507812	1419.4375	-322.7005920410156	329.902099609375	1428.663696289062	-445.1980895996094	252.3048706054688	1303.197509765625	-469.1629943847656	248.4379272460938	1091.192993164062	-519.9434814453125	297.5712280273438	1067.363159179688	-427.5916748046875	387.8334350585938	886.9041748046875	-610.803955078125	309.9960632324219	854.9056396484375	-590.4241333007812	267.8314514160156	988.0602416992188	-559.9161987304688	443.1540222167969	711.0614013671875	-643.007568359375	343.1703796386719	786.4398193359375	-630.052734375	408.4686584472656	810.9849243164062	-646.623291015625	649.7113647460938	1414.729614257812	-308.6271057128906	701.7523193359375	1346.97998046875	-274.5731201171875	718.3518676757812	1093.39208984375	-212.5061645507812	637.8566284179688	1064.13037109375	-265.7449035644531	737.6487426757812	824.1226806640625	-323.08447265625	758.704345703125	821.9854125976562	-238.2002258300781	731.335693359375	1013.189819335938	-211.3956298828125	717.6362915039062	636.9055786132812	-301.2856750488281	743.861328125	720.3492431640625	-328.0553894042969	774.2306518554688	729.2740478515625	-257.7574768066406	435.7114868164062	1630.7255859375	-339.1645202636719	589.5294189453125	1675.420654296875	-483.8731994628906	465.7109375	1680.150024414062	-508.2256164550781	571.6217651367188	1618.797973632812	-322.28271484375	313.5040588378906	929.4602661132812	-402.5614624023438	652.8929443359375	938.0956420898438	-324.6340942382812	650.730712890625	959.4990844726562	-446.7566528320312	387.7040100097656	941.9520874023438	-502.0916137695312	407.2688598632812	453.2642822265625	-441.2218627929688	357.0901794433594	600.328125	-432.3056640625	276.7385864257812	114.737060546875	-106.0009994506836	326.2067565917969	278.5959167480469	-267.0066528320312	424.7630920410156	35.38461685180664	-194.5072631835938	421.9070739746094	56.72158432006836	-141.5437927246094	317.3234252929688	40.4522705078125	-175.3332214355469	305.3633422851562	175.3347015380859	-39.2735481262207	661.9522094726562	521.8704223632812	-531.0309448242188	678.9163208007812	780.799072265625	-451.099609375	675.54638671875	33.43008422851562	-533.3086547851562	672.9567260742188	394.670166015625	-541.9854736328125	643.0244750976562	45.93412399291992	-747.5826416015625	603.4737548828125	45.52602386474609	-689.8909912109375	694.41064453125	43.32228851318359	-653.1133422851562	615.970703125	33.97152709960938	-490.6315002441406	
395	3.94	566.7088012695312	1002.200378417969	-270.4569702148438	395.1763305664062	991.61669921875	-292.3475952148438	468.0325622558594	1057.363159179688	-283.21826171875	539.1885986328125	1259.190551757812	-518.080078125	448.944091796875	1186.380126953125	-266.4376831054688	470.2398071289062	1454.9228515625	-314.0581665039062	531.7312622070312	1373.12890625	-485.2350769042969	515.7579956054688	1312.526000976562	-236.9961853027344	364.7684326171875	1420.707763671875	-328.4450378417969	333.6243896484375	1430.036010742188	-450.7743225097656	256.0487060546875	1304.50439453125	-474.0922546386719	252.0661163330078	1092.256958007812	-523.9840087890625	302.1584167480469	1068.935180664062	-431.9242553710938	386.2702331542969	884.099365234375	-614.2197875976562	308.1947937011719	854.0416870117188	-591.961181640625	269.1292419433594	988.413818359375	-562.8366088867188	437.1229248046875	706.3868408203125	-644.3792114257812	339.0715026855469	784.2353515625	-631.0689086914062	404.6515808105469	807.0471801757812	-649.1236572265625	654.5726318359375	1416.152221679688	-316.8359375	707.0634155273438	1348.44580078125	-283.3790893554688	724.93603515625	1094.586059570312	-222.2225341796875	643.9451293945312	1065.210693359375	-274.9325561523438	744.055419921875	826.031982421875	-334.4047546386719	765.7710571289062	823.3630981445312	-249.7463836669922	738.1446533203125	1014.365234375	-221.6134796142578	724.9537353515625	638.4896850585938	-313.5923461914062	750.7005004882812	722.440673828125	-340.2686462402344	781.4451904296875	730.8572998046875	-269.9829406738281	440.1484985351562	1632.038452148438	-345.5445556640625	593.202392578125	1676.760375976562	-491.0865478515625	469.2590942382812	1681.590698242188	-514.751708984375	576.1806030273438	1620.063110351562	-329.4864196777344	318.3146667480469	930.35107421875	-408.6911926269531	657.8117065429688	939.5055541992188	-332.5785827636719	654.8855590820312	960.9009399414062	-454.5978088378906	391.7680358886719	943.6679077148438	-508.7943725585938	410.0953063964844	454.3780517578125	-455.3105163574219	360.3706665039062	601.5118408203125	-443.7353820800781	280.0684509277344	121.7654876708984	-111.6903762817383	329.0783996582031	283.3590087890625	-276.9951171875	425.3492736816406	34.24469375610352	-197.6571807861328	423.5687255859375	59.63954162597656	-146.3315734863281	318.4337768554688	42.5282096862793	-177.4616088867188	310.7645874023438	184.8748474121094	-48.31034851074219	664.720703125	521.8612670898438	-535.6714477539062	683.1047973632812	781.5325927734375	-457.9247131347656	675.5235595703125	33.66082000732422	-533.6245727539062	674.9375	394.3087158203125	-545.5974731445312	643.6384887695312	43.67059707641602	-748.9248657226562	603.9642944335938	44.63983535766602	-690.7555541992188	694.6732788085938	42.6975212097168	-653.7919921875	615.9473876953125	34.20180511474609	-490.9212036132812	
396	3.95	571.650634765625	1003.312255859375	-277.6850280761719	400.0227966308594	992.147216796875	-298.5658264160156	473.2323913574219	1058.527709960938	-289.8182983398438	542.28955078125	1260.532348632812	-525.1754760742188	454.3067016601562	1187.555786132812	-272.9119873046875	474.9916687011719	1456.128540039062	-320.4679870605469	534.9923706054688	1374.45263671875	-492.2151794433594	521.3887939453125	1313.754638671875	-243.8555450439453	369.4048767089844	1421.858642578125	-334.0215759277344	337.1671142578125	1431.237182617188	-456.1480712890625	259.6084899902344	1305.609130859375	-478.6988220214844	255.3798675537109	1093.15625	-527.8409423828125	306.4400329589844	1070.290283203125	-436.0801391601562	384.5531616210938	881.3908081054688	-617.3560791015625	306.3621826171875	853.2548828125	-593.3117065429688	270.2510375976562	988.6954345703125	-565.5785522460938	431.166259765625	702.0272216796875	-645.409423828125	334.9985046386719	782.2032470703125	-631.852294921875	400.7826232910156	803.3107299804688	-651.3065185546875	659.3076171875	1417.519897460938	-324.95458984375	712.252685546875	1349.855102539062	-292.1065979003906	731.5001220703125	1095.705688476562	-231.8773956298828	649.9908447265625	1066.232543945312	-284.0185241699219	750.3980102539062	827.9721069335938	-345.864501953125	772.7758178710938	824.668212890625	-261.4132995605469	744.946044921875	1015.468872070312	-231.8092803955078	732.25146484375	640.0894775390625	-326.3017883300781	757.3853149414062	724.4479370117188	-352.6236267089844	788.6043701171875	732.39990234375	-282.4732971191406	444.4311218261719	1633.343505859375	-351.873046875	596.7777099609375	1678.026000976562	-498.1974487304688	472.7182922363281	1682.986694335938	-521.2149658203125	580.5731201171875	1621.288330078125	-336.5816345214844	322.8904113769531	931.251708984375	-414.8027648925781	662.3582763671875	940.4186401367188	-340.0361938476562	658.9727783203125	962.1210327148438	-462.2019348144531	395.7440185546875	945.2860107421875	-515.374755859375	412.7808227539062	455.6773376464844	-469.2333374023438	363.5852966308594	602.823974609375	-454.9895629882812	283.7488708496094	128.9762268066406	-117.8061904907227	332.0692749023438	288.0727233886719	-287.1590881347656	425.7379150390625	33.01750183105469	-201.781494140625	425.3644409179688	62.85374069213867	-151.95458984375	319.5829467773438	45.36465835571289	-180.2138061523438	316.3301086425781	194.1460876464844	-57.63359069824219	667.2933349609375	521.6964721679688	-539.9092407226562	687.2247924804688	782.1287231445312	-464.4020385742188	675.41650390625	33.84139633178711	-533.8726196289062	676.7679443359375	393.8721313476562	-548.9102172851562	644.1170654296875	41.62743377685547	-750.1004028320312	604.269287109375	43.80757141113281	-691.5394897460938	694.8778686523438	42.15874862670898	-654.4228515625	615.853515625	34.40754699707031	-491.1961669921875	
397	3.96	576.4636840820312	1004.332336425781	-284.7180480957031	404.7251586914062	992.65185546875	-304.7031555175781	478.36572265625	1059.555297851562	-296.3389282226562	545.2529907226562	1261.813354492188	-532.1090087890625	459.6326599121094	1188.671997070312	-279.2313842773438	479.5476684570312	1457.300537109375	-326.7853393554688	538.0623168945312	1375.678588867188	-499.0350646972656	526.9364624023438	1314.94384765625	-250.5680999755859	373.9385986328125	1422.89599609375	-339.4450988769531	340.5525512695312	1432.276000976562	-461.3276977539062	262.9958801269531	1306.523315429688	-482.9942016601562	258.3735656738281	1093.904541015625	-531.489990234375	310.4189758300781	1071.443603515625	-440.0413818359375	382.7045288085938	878.7952270507812	-620.1983032226562	304.5233459472656	852.5365600585938	-594.480224609375	271.1959533691406	988.9103393554688	-568.1318359375	425.349609375	698.0162353515625	-646.1640014648438	330.9860229492188	780.3492431640625	-632.433349609375	396.8963623046875	799.8099365234375	-653.1905517578125	663.9132690429688	1418.83984375	-332.9562683105469	717.3164672851562	1351.208984375	-300.729248046875	738.0249633789062	1096.748046875	-241.4784088134766	655.9791870117188	1067.193359375	-293.0171203613281	756.6763916015625	829.9380493164062	-357.4562377929688	779.7124633789062	825.9183959960938	-273.1932983398438	751.7190551757812	1016.507507324219	-241.9900360107422	739.4822998046875	641.7110595703125	-339.3710632324219	763.8810424804688	726.32177734375	-365.0563049316406	795.7006225585938	733.9150390625	-295.1993408203125	448.5507202148438	1634.639526367188	-358.14111328125	600.24267578125	1679.22216796875	-505.1961059570312	476.0760498046875	1684.332275390625	-527.6074829101562	584.7967529296875	1622.4853515625	-343.556884765625	327.2384643554688	932.1770629882812	-420.9163208007812	666.5255126953125	940.8956298828125	-347.0113525390625	662.997314453125	963.1712036132812	-469.5452270507812	399.6390991210938	946.7986450195312	-521.8241577148438	415.3427734375	457.1333923339844	-482.9255981445312	366.7585754394531	604.25146484375	-466.0320129394531	287.7083740234375	136.3245391845703	-124.2871246337891	335.2072143554688	292.6874084472656	-297.3959350585938	425.748779296875	31.83915519714355	-207.0703735351562	427.212646484375	66.28696441650391	-158.6162567138672	320.6961669921875	48.96855545043945	-183.6818389892578	322.1177673339844	203.0298004150391	-67.08253479003906	669.6936645507812	521.42822265625	-543.8589477539062	691.2124633789062	782.616455078125	-470.573974609375	675.2554931640625	33.96764373779297	-534.0655517578125	678.46728515625	393.3948669433594	-551.9944458007812	644.4772338867188	39.84487915039062	-751.0953369140625	604.4158325195312	43.04824066162109	-692.232421875	695.0387573242188	41.67964553833008	-654.9824829101562	615.6996459960938	34.59769821166992	-491.4554443359375	
